<svg width="40" height="40" viewBox="0 0 40 40" fill="none" xmlns="http://www.w3.org/2000/svg">
<rect width="40" height="40" fill="#1E1E1E"/>
<rect width="40" height="40" rx="8" fill="#243647"/>
<g clip-path="url(#clip0_9_22)">
<path fill-rule="evenodd" clip-rule="evenodd" d="M28.25 14.75H20.2503L17.6497 12.8C17.3897 12.606 17.0741 12.5008 16.7497 12.5H11.75C10.9216 12.5 10.25 13.1716 10.25 14V26.75C10.25 27.5784 10.9216 28.25 11.75 28.25H28.3334C29.1154 28.249 29.749 27.6154 29.75 26.8334V16.25C29.75 15.4216 29.0784 14.75 28.25 14.75V14.75ZM28.25 26.75H11.75V14H16.7497L19.3503 15.95C19.6103 16.144 19.9259 16.2492 20.2503 16.25H28.25V26.75Z" fill="white"/>
</g>
<defs>
<clipPath id="clip0_9_22">
<rect width="24" height="24" fill="white" transform="translate(8 8)"/>
</clipPath>
</defs>
</svg>
