<svg width="24" height="24" viewBox="0 0 24 24" fill="none" xmlns="http://www.w3.org/2000/svg">
<g clip-path="url(#clip0_9_64)">
<path fill-rule="evenodd" clip-rule="evenodd" d="M20.25 3.75H3.75C2.92157 3.75 2.25 4.42157 2.25 5.25V18.75C2.25 19.5784 2.92157 20.25 3.75 20.25H20.25C21.0784 20.25 21.75 19.5784 21.75 18.75V5.25C21.75 4.42157 21.0784 3.75 20.25 3.75V3.75ZM20.25 18.75H3.75V5.25H20.25V18.75V18.75ZM7.5 7.875C7.5 8.49632 6.99632 9 6.375 9C5.75368 9 5.25 8.49632 5.25 7.875C5.25 7.25368 5.75368 6.75 6.375 6.75C6.99632 6.75 7.5 7.25368 7.5 7.875V7.875ZM11.25 7.875C11.25 8.49632 10.7463 9 10.125 9C9.50368 9 9 8.49632 9 7.875C9 7.25368 9.50368 6.75 10.125 6.75C10.7463 6.75 11.25 7.25368 11.25 7.875V7.875Z" fill="white"/>
</g>
<defs>
<clipPath id="clip0_9_64">
<rect width="24" height="24" fill="white"/>
</clipPath>
</defs>
</svg>
