<svg width="20" height="20" viewBox="0 0 20 20" fill="none" xmlns="http://www.w3.org/2000/svg">
<path d="M15 9.28571L5 9.28571C4.21102 9.28571 3.57143 9.92531 3.57143 10.7143L3.57143 16.4286C3.57143 17.2175 4.21102 17.8571 5 17.8571L15 17.8571C15.789 17.8571 16.4286 17.2175 16.4286 16.4286V10.7143C16.4286 9.92531 15.789 9.28571 15 9.28571Z" stroke="#F3F4F6" stroke-width="1.71429" stroke-miterlimit="10" stroke-linecap="square"/>
<path d="M10 15C10.789 15 11.4286 14.3604 11.4286 13.5714C11.4286 12.7825 10.789 12.1429 10 12.1429C9.21102 12.1429 8.57143 12.7825 8.57143 13.5714C8.57143 14.3604 9.21102 15 10 15Z" stroke="#F3F4F6" stroke-width="1.71429" stroke-miterlimit="10" stroke-linecap="square"/>
<path d="M13.5714 6.42857V5.71429C13.5808 4.7766 13.2173 3.87359 12.5609 3.20385C11.9046 2.53411 11.0091 2.15247 10.0714 2.14286H10C9.06231 2.13353 8.15931 2.497 7.48957 3.15335C6.81982 3.80969 6.43818 4.70517 6.42857 5.64286V6.42857" stroke="#F3F4F6" stroke-width="1.71429" stroke-miterlimit="10" stroke-linecap="square"/>
</svg>
