<svg width="24" height="26" viewBox="0 0 24 26" fill="none" xmlns="http://www.w3.org/2000/svg">
<path d="M22.4 1L1.59998 1L1.59998 25L22.4 25L22.4 1Z" stroke="#F3F4F6" stroke-width="1.92" stroke-miterlimit="10" stroke-linecap="square"/>
<path d="M16.8 15V7.4L9.59998 7.4L9.59998 16.6" stroke="#F3F4F6" stroke-width="1.92" stroke-miterlimit="10"/>
<path d="M7.59998 18.6C8.70455 18.6 9.59998 17.7046 9.59998 16.6C9.59998 15.4954 8.70455 14.6 7.59998 14.6C6.49541 14.6 5.59998 15.4954 5.59998 16.6C5.59998 17.7046 6.49541 18.6 7.59998 18.6Z" stroke="#F3F4F6" stroke-width="1.92" stroke-miterlimit="10" stroke-linecap="square"/>
<path d="M14.8 17C15.9045 17 16.8 16.1046 16.8 15C16.8 13.8954 15.9045 13 14.8 13C13.6954 13 12.8 13.8954 12.8 15C12.8 16.1046 13.6954 17 14.8 17Z" stroke="#F3F4F6" stroke-width="1.92" stroke-miterlimit="10" stroke-linecap="square"/>
</svg>
