<svg width="20" height="20" viewBox="0 0 20 20" fill="none" xmlns="http://www.w3.org/2000/svg">
<path d="M8.28999 16.03C4.01493 16.03 0.549988 12.565 0.549988 8.28999C0.549988 4.01493 4.01493 0.549988 8.28999 0.549988C12.565 0.549988 16.03 4.01493 16.03 8.28999C16.0248 12.5625 12.5625 16.0248 8.28999 16.03ZM8.28999 2.26999C4.96523 2.26999 2.26999 4.96523 2.26999 8.28999C2.26999 11.6147 4.96523 14.31 8.28999 14.31C11.6147 14.31 14.31 11.6147 14.31 8.28999C14.3065 4.96695 11.613 2.27343 8.28999 2.26999Z" fill="#F3F4F6"/>
<path d="M19.1894 17.9734L15.5292 14.3132C15.162 14.7544 14.7544 15.162 14.3132 15.5292L17.9734 19.1894C18.3148 19.5196 18.8592 19.5102 19.1894 19.1679C19.511 18.8342 19.511 18.3062 19.1894 17.9734Z" fill="#F3F4F6"/>
<path d="M4.84999 9.14999C4.37527 9.14999 3.98999 8.76471 3.98999 8.28999C3.98999 5.91897 5.91897 3.98999 8.28999 3.98999C8.76471 3.98999 9.14999 4.37527 9.14999 4.84999C9.14999 5.32471 8.76471 5.70999 8.28999 5.70999C6.86755 5.70999 5.70999 6.86755 5.70999 8.28999C5.70999 8.76471 5.32471 9.14999 4.84999 9.14999Z" fill="#F3F4F6"/>
</svg>
