<svg width="14" height="20" viewBox="0 0 14 20" fill="none" xmlns="http://www.w3.org/2000/svg">
<path fill-rule="evenodd" clip-rule="evenodd" d="M13.75 5.09125V1.75C13.75 0.921573 13.0784 0.25 12.25 0.25H1.75C0.921573 0.25 0.25 0.921573 0.25 1.75V5.125C0.251027 5.59689 0.473102 6.04104 0.85 6.325L5.75031 10L0.85 13.675C0.473102 13.959 0.251027 14.4031 0.25 14.875V18.25C0.25 19.0784 0.921573 19.75 1.75 19.75H12.25C13.0784 19.75 13.75 19.0784 13.75 18.25V14.9088C13.7489 14.4387 13.5288 13.9961 13.1547 13.7116L8.24406 10L13.1547 6.2875C13.529 6.00356 13.7492 5.56107 13.75 5.09125V5.09125ZM12.25 18.25H1.75V14.875L7 10.9375L12.25 14.9078V18.25ZM12.25 5.09125L7 9.0625L1.75 5.125V1.75H12.25V5.09125Z" fill="white"/>
</svg>
