<svg width="24" height="24" viewBox="0 0 24 24" fill="none" xmlns="http://www.w3.org/2000/svg">
<g clip-path="url(#clip0_9_75)">
<path fill-rule="evenodd" clip-rule="evenodd" d="M22.5 11.25C22.4974 8.76579 20.4842 6.75258 18 6.75H14.2688C13.9959 6.73406 9.24187 6.39937 4.71469 2.6025C4.26836 2.22765 3.64529 2.14529 3.11689 2.3913C2.58849 2.63731 2.25044 3.16714 2.25 3.75V18.75C2.25008 19.333 2.58799 19.8632 3.11646 20.1094C3.64494 20.3557 4.26823 20.2734 4.71469 19.8984C8.25562 16.9284 11.9334 16.0772 13.5 15.8391V18.8128C13.4994 19.3148 13.7499 19.7839 14.1675 20.0625L15.1987 20.7497C15.6032 21.0196 16.1134 21.0768 16.5676 20.903C17.0218 20.7292 17.3635 20.346 17.4844 19.875L18.5878 15.7163C20.8269 15.4183 22.4995 13.5088 22.5 11.25V11.25ZM3.75 18.7434V3.75V3.75C7.76344 7.11656 11.8716 7.96875 13.5 8.17875V14.3175C11.8734 14.5313 7.76625 15.3816 3.75 18.7434V18.7434ZM16.0312 19.4934V19.5037L15 18.8166V15.75H17.025L16.0312 19.4934ZM18 14.25H15V8.25H18C19.6569 8.25 21 9.59315 21 11.25C21 12.9069 19.6569 14.25 18 14.25V14.25Z" fill="white"/>
</g>
<defs>
<clipPath id="clip0_9_75">
<rect width="24" height="24" fill="white"/>
</clipPath>
</defs>
</svg>
