<svg width="40" height="40" viewBox="0 0 40 40" fill="none" xmlns="http://www.w3.org/2000/svg">
<rect width="40" height="40" rx="8" fill="#243647"/>
<g clip-path="url(#clip0_9_35)">
<path fill-rule="evenodd" clip-rule="evenodd" d="M23 11.75C19.8752 11.7524 17.0193 13.5183 15.6209 16.3128C13.3976 15.9886 11.1795 16.9336 9.87326 18.7617C8.567 20.5898 8.39156 22.9945 9.41864 24.9928C10.4457 26.9911 12.5032 28.2481 14.75 28.25H23C27.5563 28.25 31.25 24.5563 31.25 20C31.25 15.4437 27.5563 11.75 23 11.75V11.75ZM23 26.75H14.75C12.2647 26.75 10.25 24.7353 10.25 22.25C10.25 19.7647 12.2647 17.75 14.75 17.75C14.8531 17.75 14.9562 17.75 15.0584 17.7603C14.8533 18.4892 14.7495 19.2428 14.75 20C14.75 20.4142 15.0858 20.75 15.5 20.75C15.9142 20.75 16.25 20.4142 16.25 20C16.25 16.2721 19.2721 13.25 23 13.25C26.7279 13.25 29.75 16.2721 29.75 20C29.75 23.7279 26.7279 26.75 23 26.75V26.75Z" fill="white"/>
</g>
<defs>
<clipPath id="clip0_9_35">
<rect width="24" height="24" fill="white" transform="translate(8 8)"/>
</clipPath>
</defs>
</svg>
