<svg width="19" height="16" viewBox="0 0 19 16" fill="none" xmlns="http://www.w3.org/2000/svg">
<rect width="19" height="16" fill="#1E1E1E"/>
<path fill-rule="evenodd" clip-rule="evenodd" d="M1.25 4.7441H4.34375C4.68363 6.07154 5.87974 6.99998 7.25 6.99998C8.62026 6.99998 9.81637 6.07154 10.1562 4.7441H17.75C18.1642 4.7441 18.5 4.40832 18.5 3.9941C18.5 3.57989 18.1642 3.2441 17.75 3.2441H10.1562C9.81637 1.91667 8.62026 0.98822 7.25 0.98822C5.87974 0.98822 4.68363 1.91667 4.34375 3.2441H1.25C0.835786 3.2441 0.5 3.57989 0.5 3.9941C0.5 4.40832 0.835786 4.7441 1.25 4.7441ZM7.25 2.4941C8.07843 2.4941 8.75 3.16568 8.75 3.9941C8.75 4.82253 8.07843 5.4941 7.25 5.4941C6.42157 5.4941 5.75 4.82253 5.75 3.9941C5.75 3.16568 6.42157 2.4941 7.25 2.4941ZM17.75 12.2441H16.1562C15.8164 10.9167 14.6203 9.98822 13.25 9.98822C11.8797 9.98822 10.6836 10.9167 10.3438 12.2441H1.25C0.835786 12.2441 0.5 12.5799 0.5 12.9941C0.5 13.4083 0.835786 13.7441 1.25 13.7441H10.3438C10.6836 15.0715 11.8797 16 13.25 16C14.6203 16 15.8164 15.0715 16.1562 13.7441H17.75C18.1642 13.7441 18.5 13.4083 18.5 12.9941C18.5 12.5799 18.1642 12.2441 17.75 12.2441ZM13.25 14.4941C12.4216 14.4941 11.75 13.8225 11.75 12.9941C11.75 12.1657 12.4216 11.4941 13.25 11.4941C14.0784 11.4941 14.75 12.1657 14.75 12.9941C14.75 13.8225 14.0784 14.4941 13.25 14.4941Z" fill="white"/>
</svg>
