<svg width="40" height="40" viewBox="0 0 40 40" fill="none" xmlns="http://www.w3.org/2000/svg">
<rect width="40" height="40" rx="8" fill="#243647"/>
<g clip-path="url(#clip0_9_29)">
<path fill-rule="evenodd" clip-rule="evenodd" d="M20 10.25C14.9534 10.25 11 12.5563 11 15.5V24.5C11 27.4437 14.9534 29.75 20 29.75C25.0466 29.75 29 27.4437 29 24.5V15.5C29 12.5563 25.0466 10.25 20 10.25V10.25ZM27.5 20C27.5 20.9019 26.7612 21.8216 25.4741 22.5238C24.0247 23.3141 22.0803 23.75 20 23.75C17.9197 23.75 15.9753 23.3141 14.5259 22.5238C13.2388 21.8216 12.5 20.9019 12.5 20V18.44C14.0994 19.8462 16.8341 20.75 20 20.75C23.1659 20.75 25.9006 19.8425 27.5 18.44V20ZM14.5259 12.9763C15.9753 12.1859 17.9197 11.75 20 11.75C22.0803 11.75 24.0247 12.1859 25.4741 12.9763C26.7612 13.6784 27.5 14.5981 27.5 15.5C27.5 16.4019 26.7612 17.3216 25.4741 18.0238C24.0247 18.8141 22.0803 19.25 20 19.25C17.9197 19.25 15.9753 18.8141 14.5259 18.0238C13.2388 17.3216 12.5 16.4019 12.5 15.5C12.5 14.5981 13.2388 13.6784 14.5259 12.9763V12.9763ZM25.4741 27.0238C24.0247 27.8141 22.0803 28.25 20 28.25C17.9197 28.25 15.9753 27.8141 14.5259 27.0238C13.2388 26.3216 12.5 25.4019 12.5 24.5V22.94C14.0994 24.3462 16.8341 25.25 20 25.25C23.1659 25.25 25.9006 24.3425 27.5 22.94V24.5C27.5 25.4019 26.7612 26.3216 25.4741 27.0238V27.0238Z" fill="white"/>
</g>
<defs>
<clipPath id="clip0_9_29">
<rect width="24" height="24" fill="white" transform="translate(8 8)"/>
</clipPath>
</defs>
</svg>
