<svg width="24" height="24" viewBox="0 0 24 24" fill="none" xmlns="http://www.w3.org/2000/svg">
<path d="M19.6299 13.2496C19.7002 12.8367 19.7371 12.4188 19.74 12C19.7371 11.5812 19.7002 11.1633 19.6299 10.7504L21.4359 9.00548C21.7193 8.73131 21.7799 8.29959 21.583 7.958L20.293 5.722C20.0935 5.38184 19.6897 5.21898 19.31 5.32554L16.902 6.01354C16.25 5.48251 15.516 5.06106 14.7288 4.76568L14.1242 2.33188C14.0287 1.9489 13.6847 1.68011 13.29 1.68L10.71 1.68C10.3153 1.68011 9.97132 1.9489 9.8758 2.33188L9.26778 4.76568C8.48172 5.06139 7.74891 5.48283 7.098 6.01354L4.69 5.32554C4.31034 5.2193 3.90673 5.38208 3.70702 5.722L2.41702 7.958C2.21968 8.29979 2.28031 8.73204 2.56408 9.00634L4.37008 10.7513C4.29981 11.1639 4.26299 11.5815 4.26 12C4.26295 12.4188 4.29976 12.8367 4.37008 13.2496L2.56408 14.9945C2.28075 15.2687 2.22013 15.7004 2.41702 16.042L3.70702 18.278C3.86079 18.5443 4.14509 18.7083 4.45264 18.708C4.53257 18.7076 4.6121 18.6967 4.68914 18.6753L7.09714 17.9873C7.7491 18.5183 8.48309 18.9398 9.27036 19.2352L9.87838 21.669C9.974 22.0507 10.3165 22.3188 10.71 22.32H13.29C13.6847 22.3199 14.0287 22.0511 14.1242 21.6681L14.7322 19.2343C15.5183 18.9386 16.2511 18.5172 16.902 17.9865L19.31 18.6745C19.387 18.6958 19.4666 18.7068 19.5465 18.7071C19.854 18.7074 20.1383 18.5435 20.2921 18.2771L21.5821 16.0411C21.7795 15.6993 21.7188 15.2671 21.4351 14.9928L19.6299 13.2496ZM12 15.44C10.1001 15.44 8.56 13.8999 8.56 12C8.56 10.1001 10.1001 8.56 12 8.56C13.8999 8.56 15.44 10.1001 15.44 12C15.44 13.8999 13.8999 15.44 12 15.44Z" fill="#F3F4F6"/>
</svg>
